<svg width="158" height="106" viewBox="0 0 158 106" fill="none" xmlns="http://www.w3.org/2000/svg">
<path d="M153.15 9.85V12.25H145.425V0.774991H147.75V9.85H153.15ZM113.25 27.625V30.175H105.45V18.7H107.925V27.625H113.25ZM127.875 21.1V23.275H132.15V25.75H127.875V27.625H133.35V30.175H125.475V18.7H133.35V21.1H127.875ZM113.925 38.8H110.925V48.025H108.225V38.8H105.375V36.475H113.925V38.8ZM130.8 48.025H128.25V36.475H130.8V48.025ZM148.125 39.025V41.125H152.25V43.6H148.125V48.025H145.65V36.625H153.675V39.025H148.125ZM157.425 106H109.575H0V103.45H13.2V18.1H13.35H43.575V20.725H15.9V26.65H43.575V29.35H15.9V35.425H43.575V37.825H15.9V103.45H31.5L32.175 100.675L32.325 100.15L32.85 98.5L33.525 95.8L33.675 95.35L34.05 93.625L34.125 93.4L35.1 89.8L35.325 88.675L35.475 88.225L36.3 85.15L36.45 84.55L36.9 82.75L37.65 80.2L37.8 79.6L38.175 77.875L39 74.725L39.45 73.675L39.6 73.3V73.15V72.925L39.75 72.85L40.575 69.4L40.8 68.35L40.95 67.825L41.025 67.75L41.775 64.825L41.925 64.375L42.3 62.65L42.975 59.95L43.2 59.35L43.575 57.7L44.475 54.55L44.55 54.025L45.075 52.375L45.15 52L45.9 49.3L46.05 48.7L46.35 47.05L46.5 46.675H49.425L49.5 47.05L49.875 48.7L50.1 49.3L50.85 52.375L51 52.825L51.375 54.025L52.2 57.325L52.35 57.7L52.8 59.35L52.95 59.95L53.625 62.65L54 64.375L54.225 64.825L54.975 67.75L55.35 69.4L56.325 72.85V72.925V73.15L56.4 73.3L56.55 73.675L56.925 74.725L57.75 77.875L58.275 79.6L58.35 80.2L58.95 82.75L59.475 84.55L59.55 85.15L60.45 88.225L60.9 89.8L61.05 90.4L61.725 93.4L61.875 93.625L62.25 95.35L62.475 95.8L63.075 98.5L63.6 100.15L63.675 100.675L64.425 103.45H80.925V77.2C80.125 77.4 79.325 77.525 78.525 77.575C77.725 77.625 76.825 77.65 75.825 77.65H75.45V75.1H75.825C76.525 75.1 77.15 75.1 77.7 75.1C78.3 75.05 78.85 74.975 79.35 74.875L79.425 74.725L76.8 71.95L78.6 70.15L80.925 72.55V18.925C80.225 18.625 79.55 18.4 78.9 18.25C78.3 18.05 77.75 17.9 77.25 17.8C76.7 17.65 76.175 17.55 75.675 17.5L75.225 17.35L75.6 14.95H76.05C76.15 15 76.65 15.125 77.55 15.325C78.5 15.475 79.625 15.8 80.925 16.3V13.975H83.55V17.5C85.05 18.2 86.4 19.25 87.6 20.65C88.85 22 89.6 23.725 89.85 25.825C90 26.925 90.225 27.875 90.525 28.675C90.875 29.475 91.275 30.2 91.725 30.85C92.175 31.5 92.675 32.075 93.225 32.575C93.775 33.075 94.35 33.575 94.95 34.075C95.7 34.675 96.425 35.325 97.125 36.025C97.875 36.675 98.525 37.45 99.075 38.35C99.675 39.25 100.15 40.325 100.5 41.575C100.85 42.825 101.025 44.35 101.025 46.15C101.025 47.85 100.8 49.35 100.35 50.65C99.95 51.95 99.425 53.125 98.775 54.175C98.175 55.225 97.475 56.175 96.675 57.025C95.875 57.825 95.1 58.6 94.35 59.35C93.25 60.45 92.25 61.525 91.35 62.575C90.5 63.575 90.05 64.775 90 66.175C89.85 70.175 88.475 73.15 85.875 75.1C85.775 75.2 85.65 75.325 85.5 75.475C85.35 75.575 85.175 75.65 84.975 75.7L84.3 76.075L110.7 103.45H123C122.3 103.05 121.675 102.5 121.125 101.8C120.575 101.1 120.075 100.325 119.625 99.475C118.175 98.725 117 97.775 116.1 96.625C115.25 95.425 114.575 93.9 114.075 92.05C113.225 91 112.5 89.8 111.9 88.45C111.3 87.9 110.725 87.325 110.175 86.725C109.175 85.725 108.55 84.575 108.3 83.275C108.05 81.975 107.875 80.675 107.775 79.375V78.25V77.65V77.2C107.775 76.15 107.8 75.15 107.85 74.2C107.9 73.2 108.025 72.25 108.225 71.35C108.475 70.4 108.85 69.525 109.35 68.725C109.85 67.875 110.575 67.1 111.525 66.4C112.225 64.45 113.425 62.825 115.125 61.525C115.575 60.225 116.2 59.075 117 58.075C117.8 57.075 118.85 56.3 120.15 55.75C121.8 52.35 125.05 50.625 129.9 50.575H130.05C134.45 50.575 137.55 52.375 139.35 55.975C142 57.275 143.825 59.75 144.825 63.4C145.875 64.45 146.6 65.7 147 67.15C147.3 67.4 147.575 67.675 147.825 67.975C148.075 68.225 148.325 68.5 148.575 68.8C149.575 69.85 150.2 71.025 150.45 72.325C150.75 73.575 150.925 74.875 150.975 76.225V77.2V77.8V78.25C150.975 79.3 150.95 80.325 150.9 81.325C150.85 82.325 150.7 83.3 150.45 84.25C150.25 85.15 149.9 86.025 149.4 86.875C148.95 87.675 148.275 88.4 147.375 89.05C146.825 91 145.625 92.65 143.775 94C142.825 96.65 141.2 98.55 138.9 99.7C138.5 100.5 138 101.225 137.4 101.875C136.85 102.525 136.175 103.05 135.375 103.45H157.425V106ZM83.55 73.525C83.75 73.475 83.925 73.4 84.075 73.3C84.275 73.15 84.425 73.025 84.525 72.925C86.425 71.525 87.425 69.225 87.525 66.025C87.675 64.125 88.225 62.55 89.175 61.3C90.125 60 91.25 58.725 92.55 57.475C93.25 56.825 93.95 56.125 94.65 55.375C95.35 54.625 95.975 53.825 96.525 52.975C97.075 52.075 97.5 51.075 97.8 49.975C98.15 48.875 98.325 47.6 98.325 46.15C98.325 44.65 98.175 43.375 97.875 42.325C97.625 41.275 97.25 40.375 96.75 39.625C96.3 38.825 95.75 38.15 95.1 37.6C94.5 37.05 93.875 36.525 93.225 36.025C92.575 35.475 91.925 34.9 91.275 34.3C90.675 33.7 90.125 33.025 89.625 32.275C89.125 31.475 88.675 30.6 88.275 29.65C87.925 28.65 87.675 27.5 87.525 26.2C87.375 24.85 86.925 23.7 86.175 22.75C85.475 21.8 84.6 20.975 83.55 20.275V73.525ZM121.725 98.125C122.975 101.025 125.3 102.475 128.7 102.475H129C131.05 102.475 132.675 102.125 133.875 101.425C135.075 100.725 136.025 99.675 136.725 98.275L136.95 97.75L137.475 97.675C138.475 97.175 139.3 96.55 139.95 95.8C140.65 95 141.15 94 141.45 92.8L141.525 92.35L141.9 92.05C142.7 91.55 143.35 90.975 143.85 90.325C144.4 89.675 144.8 88.875 145.05 87.925L145.2 87.475L145.65 87.25C147.05 86.3 147.875 85.075 148.125 83.575C148.375 82.075 148.5 80.3 148.5 78.25V77.8V77.2V76.3C148.5 75.2 148.4 74.15 148.2 73.15C148 72.1 147.575 71.175 146.925 70.375H146.775C146.275 69.825 145.75 69.3 145.2 68.8L144.975 68.575L144.825 68.2C144.175 66.75 143.45 65.625 142.65 64.825L142.425 64.6V64.225C141.675 61.225 140.125 59.125 137.775 57.925L137.475 57.7L137.175 57.175C135.925 54.425 133.55 53.05 130.05 53.05H129.9C125.95 53.05 123.375 54.4 122.175 57.1L121.95 57.55L121.575 57.7C120.475 58.25 119.6 58.925 118.95 59.725C118.35 60.525 117.85 61.5 117.45 62.65L117.375 63.1L116.85 63.4C116.05 63.9 115.4 64.475 114.9 65.125C114.45 65.775 114.1 66.6 113.85 67.6L113.7 68.125L113.325 68.35C111.825 69.35 110.95 70.575 110.7 72.025C110.45 73.425 110.325 75.15 110.325 77.2V77.65V78.25V79.225C110.425 80.275 110.575 81.325 110.775 82.375C110.975 83.375 111.425 84.3 112.125 85.15C112.375 85.45 112.625 85.725 112.875 85.975C113.125 86.225 113.4 86.475 113.7 86.725L114.075 87.025L114.225 87.325C114.675 88.775 115.3 89.875 116.1 90.625L116.4 90.85L116.475 91.225C116.875 92.825 117.45 94.125 118.2 95.125C119 96.125 119.975 96.925 121.125 97.525L121.425 97.675L121.725 98.125ZM83.55 79V103.45H107.175L83.55 79ZM47.25 53.95H48.825V53.65L48.3 52L47.925 51.175L47.7 52L47.25 53.65V53.95ZM46.125 58.15H49.8L49.65 57.325L49.275 56.2H46.65L46.275 57.325L46.125 58.15ZM44.775 63.025H51.075L51 62.275L50.4 60.475H45.525L45.075 62.275L44.775 63.025ZM43.5 68.125H52.425L52.35 67.525L51.675 65.275H44.175L43.725 67.525L43.5 68.125ZM42.15 73.3H53.775L53.625 72.85L53.025 70.375H42.9L42.3 72.85L42.15 73.3ZM40.8 78.175H55.125L54.975 77.65L54.375 75.7H41.55L40.95 77.65L40.8 78.175ZM39.45 83.125H56.4L56.175 82.525L55.725 80.425H40.2L39.75 82.525L39.45 83.125ZM38.025 88.3H57.9L57.15 85.525H38.775L38.175 87.85L38.025 88.3ZM36.675 93.4H59.25L58.5 90.625H37.425L36.825 93.4H36.675ZM35.325 98.35H60.525L60.45 98.125L59.85 95.725H36.075L35.475 98.125L35.325 98.35ZM34.125 103.3H61.725L61.125 100.675H34.725L34.125 103.3ZM116.175 9.175C115.625 10.325 114.775 11.2 113.625 11.8C112.475 12.35 111.175 12.5 109.725 12.25C108.675 11.9 107.775 11.425 107.025 10.825C106.375 10.275 105.825 9.54999 105.375 8.64999C104.975 7.74999 104.975 6.57499 105.375 5.125C105.725 3.675 106.275 2.65 107.025 2.05C107.825 1.4 108.625 0.974995 109.425 0.774991C110.325 0.574994 111.325 0.574994 112.425 0.774991C112.825 0.874996 113.225 1.025 113.625 1.22499C113.975 1.375 114.35 1.6 114.75 1.9C115.15 2.2 115.525 2.57499 115.875 3.025L113.625 4.375C113.425 4.175 113.175 3.94999 112.875 3.69999C112.625 3.44999 112.275 3.27499 111.825 3.175C110.975 3.025 110.3 3.07499 109.8 3.32499C109.3 3.525 108.9 3.825 108.6 4.22499C108.25 4.67499 107.975 5.175 107.775 5.725C107.675 6.27499 107.7 6.82499 107.85 7.375C107.95 7.82499 108.175 8.27499 108.525 8.725C108.875 9.125 109.475 9.425 110.325 9.62499C111.075 9.87499 111.725 9.85 112.275 9.55C112.875 9.25 113.375 8.775 113.775 8.12499L116.175 9.175ZM129.375 0.549999C130.425 0.599995 131.4 0.849995 132.3 1.3C133.05 1.7 133.725 2.3 134.325 3.09999C134.975 3.84999 135.3 4.94999 135.3 6.39999C135.3 7.89999 134.975 9.04999 134.325 9.85C133.725 10.6 133.05 11.175 132.3 11.575C131.4 12.025 130.425 12.275 129.375 12.325C128.275 12.275 127.3 12.025 126.45 11.575C125.7 11.175 125.025 10.6 124.425 9.85C123.825 9.04999 123.525 7.89999 123.525 6.39999C123.525 4.94999 123.825 3.84999 124.425 3.09999C125.025 2.3 125.7 1.7 126.45 1.3C127.3 0.849995 128.275 0.599995 129.375 0.549999ZM129.375 9.77499C130.225 9.77499 130.85 9.59999 131.25 9.24999C131.7 8.9 132.05 8.525 132.3 8.12499C132.55 7.625 132.7 7.05 132.75 6.39999C132.7 5.8 132.55 5.25 132.3 4.75C132.05 4.35 131.7 3.975 131.25 3.625C130.85 3.27499 130.225 3.09999 129.375 3.09999C128.525 3.09999 127.875 3.27499 127.425 3.625C126.975 3.975 126.65 4.35 126.45 4.75C126.2 5.25 126.075 5.8 126.075 6.39999C126.075 7.05 126.2 7.625 126.45 8.12499C126.65 8.525 126.975 8.9 127.425 9.24999C127.875 9.59999 128.525 9.77499 129.375 9.77499ZM154.65 27.1C154.1 28.25 153.25 29.125 152.1 29.725C150.95 30.275 149.65 30.425 148.2 30.175C147.15 29.825 146.25 29.35 145.5 28.75C144.85 28.2 144.3 27.475 143.85 26.575C143.45 25.675 143.45 24.5 143.85 23.05C144.2 21.6 144.75 20.575 145.5 19.975C146.3 19.325 147.1 18.9 147.9 18.7C148.8 18.5 149.8 18.5 150.9 18.7C151.3 18.8 151.7 18.95 152.1 19.15C152.45 19.3 152.825 19.525 153.225 19.825C153.625 20.125 154 20.5 154.35 20.95L152.1 22.3C151.9 22.1 151.65 21.875 151.35 21.625C151.1 21.375 150.75 21.2 150.3 21.1C149.45 20.95 148.775 21 148.275 21.25C147.775 21.45 147.375 21.75 147.075 22.15C146.725 22.6 146.45 23.1 146.25 23.65C146.15 24.2 146.175 24.75 146.325 25.3C146.425 25.75 146.65 26.2 147 26.65C147.35 27.05 147.95 27.35 148.8 27.55C149.55 27.8 150.2 27.775 150.75 27.475C151.35 27.175 151.85 26.7 152.25 26.05L154.65 27.1Z" fill="#3F0303"/>
</svg>
