<svg width="318" height="234" viewBox="0 0 318 234" fill="none" xmlns="http://www.w3.org/2000/svg">
<path d="M317.1 228.463V233.899H0V228.463H10.419V175.311V172.14V134.39H65.836L51.944 152.51L65.383 172.14H16.308V228.463H57.531L98.452 58.588L99.056 56.625L99.509 53.907L101.17 46.81H102.982L105.851 59.494L146.621 228.463H155.379V113.401C158.802 113.401 162.476 113.602 166.402 114.005C169.623 114.307 173.298 114.81 177.425 115.515C181.552 116.22 185.73 117.226 189.958 118.535C201.132 122.26 209.588 127.394 215.326 133.937C221.064 140.48 223.933 148.332 223.933 157.493C223.933 166.352 220.661 174.002 214.118 180.445C211.098 183.566 207.474 186.133 203.246 188.146C199.018 190.159 194.74 191.82 190.411 193.129L218.044 228.463H255.039C252.724 226.248 250.459 223.379 248.244 219.856C246.029 216.333 244.066 212.155 242.355 207.323C239.134 198.766 236.718 188.951 235.107 177.878C233.496 166.805 232.691 155.077 232.691 142.695C232.691 130.112 233.496 118.283 235.107 107.21C236.718 96.137 239.134 86.322 242.355 77.765C245.576 69.208 249.301 62.615 253.529 57.984C257.757 53.353 262.287 51.038 267.119 51.038C271.951 51.038 276.481 53.353 280.709 57.984C284.937 62.615 288.662 69.208 291.883 77.765C295.205 86.322 297.671 96.137 299.282 107.21C300.993 118.283 301.849 130.112 301.849 142.695C301.849 155.077 300.993 166.805 299.282 177.878C297.671 188.951 295.205 198.766 291.883 207.323C290.071 212.155 288.108 216.333 285.994 219.856C283.981 223.379 281.816 226.248 279.501 228.463H317.1ZM16.308 149.49H47.263L54.813 139.524H16.308V149.49ZM16.308 166.855H55.417L47.263 154.926H16.308V166.855ZM97.093 155.832H108.72L106.606 133.484L105.851 126.387H99.207L97.093 155.832ZM94.073 196.149H112.646L109.324 160.664H96.64L94.073 196.149ZM113.854 153.718L121.706 147.527L115.817 122.763L111.136 125.33L113.854 153.718ZM82.446 147.376L91.959 153.869L93.922 125.179L88.788 122.159L82.446 147.376ZM88.486 200.075L72.631 188.75L63.118 228.463H86.372L88.486 200.075ZM91.506 159.456L81.238 152.661L73.839 183.918L89.09 194.186L91.506 159.456ZM115.817 228.463L113.099 201.283H93.62L91.657 228.463H115.817ZM117.78 193.733L130.162 183.918L122.914 152.963L114.307 159.305L117.78 193.733ZM141.185 228.463L131.974 189.052L118.233 199.471L121.253 228.463H141.185ZM160.664 131.219C162.174 131.32 163.986 131.471 166.1 131.672C168.214 131.773 170.529 131.924 173.046 132.125C175.663 132.326 178.331 132.628 181.049 133.031C183.868 133.333 186.686 133.685 189.505 134.088C195.243 135.195 200.276 136.504 204.605 138.014C208.934 139.524 212.507 141.336 215.326 143.45C213.111 139.021 209.739 135.195 205.209 131.974C200.78 128.753 195.142 125.984 188.297 123.669C182.76 121.958 177.475 120.75 172.442 120.045C167.409 119.34 163.483 118.938 160.664 118.837V131.219ZM160.664 153.869H218.346C217.541 151.755 216.081 149.943 213.967 148.433C211.954 146.822 209.538 145.413 206.719 144.205C204.001 142.997 201.031 141.99 197.81 141.185C194.589 140.279 191.468 139.574 188.448 139.071C185.73 138.467 183.012 138.014 180.294 137.712C177.677 137.309 175.16 137.007 172.744 136.806C170.328 136.605 168.063 136.454 165.949 136.353C163.936 136.252 162.174 136.152 160.664 136.051V153.869ZM160.664 177.123C163.885 177.022 168.113 176.771 173.348 176.368C178.583 175.865 183.918 175.11 189.354 174.103C194.79 173.096 199.924 171.788 204.756 170.177C209.588 168.466 213.262 166.352 215.779 163.835C217.49 162.526 218.396 161.167 218.497 159.758C218.497 159.255 218.598 158.953 218.799 158.852H160.664V177.123ZM160.664 192.978C163.181 192.877 166.553 192.575 170.781 192.072C175.009 191.468 179.489 190.562 184.22 189.354C189.052 188.045 193.783 186.384 198.414 184.371C203.145 182.358 207.172 179.74 210.494 176.519C211.501 175.714 212.356 174.808 213.061 173.801C213.766 172.794 214.47 171.788 215.175 170.781C211.551 173.096 207.122 174.959 201.887 176.368C196.753 177.777 191.569 178.885 186.334 179.69C181.099 180.495 176.167 181.049 171.536 181.351C166.905 181.653 163.281 181.854 160.664 181.955V192.978ZM211.4 228.463L185.126 194.639C180.093 195.847 175.412 196.753 171.083 197.357C166.754 197.961 163.281 198.364 160.664 198.565V228.463H211.4ZM267.119 228.312C270.743 228.312 274.266 226.248 277.689 222.121C281.112 217.893 284.132 212.004 286.749 204.454C289.668 196.099 291.883 186.636 293.393 176.066C295.004 165.395 295.809 154.272 295.809 142.695C295.809 130.917 295.004 119.743 293.393 109.173C291.883 98.603 289.668 89.191 286.749 80.936C284.132 73.285 281.112 67.396 277.689 63.269C274.266 59.142 270.743 57.078 267.119 57.078C263.596 57.078 260.123 59.142 256.7 63.269C253.277 67.396 250.157 73.285 247.338 80.936C244.419 89.191 242.154 98.603 240.543 109.173C239.033 119.743 238.278 130.917 238.278 142.695C238.278 154.272 239.033 165.395 240.543 176.066C242.154 186.636 244.419 196.099 247.338 204.454C250.157 212.004 253.277 217.893 256.7 222.121C260.123 226.248 263.596 228.312 267.119 228.312ZM123.82 17.969V23.254H107.814V0H112.797V17.969H123.82ZM155.077 17.969V23.254H139.373V0H144.205V17.969H155.077ZM176.368 4.832V8.909H184.673V13.741H176.368V17.969H187.391V23.254H170.932V0H187.391V4.832H176.368ZM146.47 44.092H140.43V62.816H135.296V44.092H129.256V39.109H146.47V44.092ZM171.083 62.816H166.251V39.109H171.083V62.816ZM144.658 84.409V88.335H153.416V93.469H144.658V102.378H139.826V79.275H155.832V84.409H144.658ZM57.984 17.365C56.8767 19.68 55.1653 21.442 52.85 22.65C50.5347 23.757 47.9173 24.059 44.998 23.556C42.884 22.851 41.072 21.895 39.562 20.687C38.2533 19.58 37.146 18.12 36.24 16.308C35.4347 14.496 35.4347 12.13 36.24 9.211C36.9447 6.292 38.052 4.228 39.562 3.02C41.1727 1.711 42.7833 0.856003 44.394 0.453003C46.206 0.0500029 48.2193 0.0500029 50.434 0.453003C51.2393 0.654003 52.0447 0.956001 52.85 1.359C53.5547 1.661 54.3097 2.114 55.115 2.718C55.9203 3.322 56.6753 4.077 57.38 4.983L52.85 7.701C52.4473 7.298 51.944 6.845 51.34 6.342C50.8367 5.839 50.132 5.486 49.226 5.285C47.5147 4.983 46.1557 5.084 45.149 5.587C44.1423 5.99 43.337 6.594 42.733 7.399C42.0283 8.305 41.4747 9.312 41.072 10.419C40.8707 11.526 40.921 12.634 41.223 13.741C41.4243 14.647 41.8773 15.553 42.582 16.459C43.2867 17.264 44.4947 17.868 46.206 18.271C47.716 18.774 49.0247 18.724 50.132 18.12C51.34 17.516 52.3467 16.56 53.152 15.251L57.984 17.365ZM82.748 0.453003C84.862 0.554003 86.825 1.057 88.637 1.963C90.147 2.768 91.506 3.976 92.714 5.587C94.023 7.097 94.677 9.312 94.677 12.231C94.677 15.251 94.023 17.566 92.714 19.177C91.506 20.687 90.147 21.845 88.637 22.65C86.825 23.556 84.862 24.059 82.748 24.16C80.5333 24.059 78.5703 23.556 76.859 22.65C75.349 21.845 73.99 20.687 72.782 19.177C71.574 17.566 70.97 15.251 70.97 12.231C70.97 9.312 71.574 7.097 72.782 5.587C73.99 3.976 75.349 2.768 76.859 1.963C78.5703 1.057 80.5333 0.554003 82.748 0.453003ZM82.748 19.026C84.4593 19.026 85.7177 18.674 86.523 17.969C87.429 17.264 88.1337 16.509 88.637 15.704C89.1403 14.697 89.4423 13.54 89.543 12.231C89.4423 11.023 89.1403 9.916 88.637 8.909C88.1337 8.104 87.429 7.349 86.523 6.644C85.7177 5.939 84.4593 5.587 82.748 5.587C81.0367 5.587 79.728 5.939 78.822 6.644C77.916 7.349 77.2617 8.104 76.859 8.909C76.3557 9.916 76.104 11.023 76.104 12.231C76.104 13.54 76.3557 14.697 76.859 15.704C77.2617 16.509 77.916 17.264 78.822 17.969C79.728 18.674 81.0367 19.026 82.748 19.026ZM77.463 56.474C76.3557 58.789 74.6443 60.551 72.329 61.759C70.0137 62.866 67.3963 63.168 64.477 62.665C62.363 61.96 60.551 61.004 59.041 59.796C57.7323 58.689 56.625 57.229 55.719 55.417C54.9137 53.605 54.9137 51.239 55.719 48.32C56.4237 45.401 57.531 43.337 59.041 42.129C60.6517 40.82 62.2623 39.965 63.873 39.562C65.685 39.159 67.6983 39.159 69.913 39.562C70.7183 39.763 71.5237 40.065 72.329 40.468C73.0337 40.77 73.7887 41.223 74.594 41.827C75.3993 42.431 76.1543 43.186 76.859 44.092L72.329 46.81C71.9263 46.407 71.423 45.954 70.819 45.451C70.3157 44.948 69.611 44.595 68.705 44.394C66.9937 44.092 65.6347 44.193 64.628 44.696C63.6213 45.099 62.816 45.703 62.212 46.508C61.5073 47.414 60.9537 48.421 60.551 49.528C60.3497 50.635 60.4 51.743 60.702 52.85C60.9033 53.756 61.3563 54.662 62.061 55.568C62.7657 56.373 63.9737 56.977 65.685 57.38C67.195 57.883 68.5037 57.833 69.611 57.229C70.819 56.625 71.8257 55.669 72.631 54.36L77.463 56.474Z" fill="#3F0303"/>
</svg>
