<svg width="329" height="187" viewBox="0 0 329 187" fill="none" xmlns="http://www.w3.org/2000/svg">
<path d="M91.1685 22.499V27.633H75.4645V4.53H80.5985V22.499H91.1685ZM122.576 22.499V27.633H106.721V4.53H111.704V22.499H122.576ZM143.716 9.664V13.59H151.87V18.422H143.716V22.801H154.588V27.633H138.28V4.53H154.588V9.664H143.716ZM122.576 48.924H116.234V67.195H111.251V48.924H105.06V43.79H122.576V48.924ZM147.34 67.195H142.206V43.79H147.34V67.195ZM112.157 88.637V92.412H120.764V97.697H112.157V106.757H107.325V83.805H123.482V88.637H112.157ZM328.54 181.2V186.334H12.3465V181.2H31.0705V67.195V63.722V61.759H55.2305V67.195H36.5065V75.802H55.2305V81.238H36.5065V90.6H55.2305V95.734H36.5065V181.2H55.3815C55.4821 179.791 55.6331 177.979 55.8345 175.764C56.1365 173.549 56.5391 171.083 57.0425 168.365C57.5458 165.647 58.2001 162.778 59.0055 159.758C59.9115 156.738 60.9685 153.668 62.1765 150.547C66.8071 138.97 73.1995 130.212 81.3535 124.273C89.5075 118.334 99.322 115.364 110.798 115.364C117.14 115.364 122.929 116.522 128.163 118.837C133.499 121.052 138.28 124.323 142.508 128.652C146.434 132.779 149.605 137.41 152.021 142.544C154.538 147.577 156.501 152.56 157.91 157.493C159.32 162.426 160.276 167.006 160.779 171.234C161.383 175.462 161.786 178.784 161.987 181.2H184.033L183.882 120.347C183.681 120.146 183.53 119.995 183.429 119.894C183.429 119.693 183.329 119.491 183.127 119.29C174.369 109.626 170.997 99.912 173.01 90.147C173.715 86.523 175.024 83.151 176.936 80.03C178.95 76.909 181.265 74.091 183.882 71.574V12.382C183.379 12.181 182.876 12.03 182.372 11.929C181.97 11.828 181.617 11.728 181.315 11.627C180.913 11.526 180.611 11.476 180.409 11.476L174.369 9.966L175.577 4.983L181.617 6.493C181.718 6.493 181.97 6.543 182.372 6.644C182.775 6.745 183.278 6.845 183.882 6.946V0H188.865V8.909C191.684 10.016 194.905 11.476 198.529 13.288C202.254 14.999 205.727 17.113 208.948 19.63C212.27 22.147 215.039 25.066 217.253 28.388C219.468 31.609 220.575 35.284 220.575 39.411C220.575 43.538 219.569 47.213 217.555 50.434C215.643 53.555 213.478 56.222 211.062 58.437C208.747 60.652 206.532 62.363 204.418 63.571C202.405 64.678 201.348 65.282 201.247 65.383C199.939 65.987 198.63 66.692 197.321 67.497C196.214 68.202 194.905 69.108 193.395 70.215C191.885 71.222 190.375 72.43 188.865 73.839V118.535C195.308 125.582 201.247 132.528 206.683 139.373C212.22 146.118 217.102 152.309 221.33 157.946C225.558 163.583 229.082 168.466 231.9 172.593C234.719 176.72 236.682 179.589 237.789 181.2H275.086L271.009 177.425L265.875 180.898L261.949 175.311L256.362 177.576L253.795 171.838L247.453 173.046L246.245 166.553H239.45V160.211L233.41 159.003L234.618 152.359L228.729 149.792L231.145 143.903L226.011 140.43L229.182 135.145L225.256 131.37L229.786 126.84L226.011 121.404L231.447 117.931L228.729 111.589L234.618 109.173L233.41 102.982L239.45 101.623V95.13H245.943L247.151 88.788L253.342 90.147L256.211 83.805L261.949 86.221L265.724 80.634L271.613 84.711L277.2 79.124L282.032 83.956L287.015 80.483L290.79 85.919L296.981 83.503L299.397 89.694L305.739 88.335L307.098 95.13H313.289V101.925L319.783 103.133L318.272 109.475L324.161 111.74L321.745 117.931L326.728 121.706L324.161 125.934L327.785 129.86L323.406 134.239L327.181 139.977L321.896 143.45L324.463 149.641L318.574 151.906L319.783 158.852L313.289 159.909V166.553H307.098L305.739 173.197L299.246 172.14L296.679 177.878L291.092 175.462L287.015 181.2L280.673 176.972L276.294 181.2H291.998H328.54ZM271.915 171.687L275.841 175.462L280.22 171.083L285.958 174.707L289.28 169.875L294.414 172.14L296.528 166.704L302.115 167.912L303.021 162.023H308.91V156.134L314.346 154.926L312.987 149.188L318.272 146.923L316.007 141.487L320.839 138.769L317.668 133.786L321.443 129.86L318.272 126.689L320.386 122.914L315.705 119.743L318.272 114.307L312.987 112.193L314.346 106.757L308.91 105.7V99.811H303.021L302.115 93.922L296.679 94.828L294.414 89.241L289.129 91.506L285.958 86.976L281.579 89.845L277.2 85.617L272.217 90.6L266.932 87.127L263.61 91.808L258.627 89.694L256.362 95.281L250.775 94.375L249.869 99.811H244.282V105.247L238.846 106.455L239.903 111.74L234.769 114.005L237.034 119.743L232.504 122.763L235.675 127.293L231.598 131.37L235.222 134.692L232.504 139.071L236.732 142.242L234.618 147.376L239.903 149.641L238.846 155.681L244.282 156.587V162.023H249.869L251.077 167.459L256.664 166.553L258.779 171.838L263.61 169.573L267.234 174.405L271.915 171.687ZM188.865 67.195C191.483 65.182 193.748 63.672 195.66 62.665C197.674 61.558 198.831 60.954 199.133 60.853C199.234 60.853 200.14 60.35 201.851 59.343C203.563 58.336 205.425 56.927 207.438 55.115C209.452 53.202 211.264 50.937 212.874 48.32C214.586 45.703 215.441 42.733 215.441 39.411C215.441 36.29 214.535 33.421 212.723 30.804C211.012 28.187 208.797 25.821 206.079 23.707C203.462 21.593 200.593 19.781 197.472 18.271C194.352 16.66 191.483 15.352 188.865 14.345V67.195ZM183.882 79.124C182.473 81.037 181.215 82.949 180.107 84.862C179.101 86.775 178.346 88.838 177.842 91.053C177.238 94.576 177.389 98.049 178.295 101.472C179.302 104.895 181.164 108.418 183.882 112.042V79.124ZM77.8805 181.2C77.8805 178.583 78.0818 174.858 78.4845 170.026C78.9878 165.093 79.8435 159.808 81.0515 154.171H65.9515C64.0388 159.708 62.6798 164.942 61.8745 169.875C61.1698 174.808 60.7671 178.583 60.6665 181.2H77.8805ZM82.1085 149.339C84.3231 140.078 87.2928 132.679 91.0175 127.142C92.0241 125.531 93.0308 124.323 94.0375 123.518C82.8635 127.545 74.3068 136.152 68.3675 149.339H82.1085ZM106.721 154.171H86.0345C84.9271 159.808 84.1721 165.093 83.7695 170.026C83.3668 174.858 83.0648 178.583 82.8635 181.2H106.721V154.171ZM106.721 120.951C104.104 121.656 101.738 122.964 99.624 124.877C97.6111 126.689 95.7991 128.904 94.1885 131.521C92.6785 134.138 91.3698 137.007 90.2625 140.128C89.1551 143.148 88.1988 146.218 87.3935 149.339H106.721V120.951ZM111.704 149.339H131.938C130.831 144.507 129.371 139.977 127.559 135.749C125.848 131.42 123.734 127.947 121.217 125.33C118.499 122.511 115.328 121.001 111.704 120.8V149.339ZM136.166 181.2C135.965 178.583 135.663 174.858 135.26 170.026C134.858 165.093 134.203 159.808 133.297 154.171H111.704V181.2H136.166ZM126.2 123.669C128.818 126.89 131.032 130.766 132.844 135.296C134.656 139.725 136.116 144.406 137.223 149.339H149.454C148.246 146.319 146.787 143.349 145.075 140.43C143.364 137.511 141.25 134.843 138.733 132.427C136.921 130.313 134.958 128.602 132.844 127.293C130.831 125.884 128.616 124.676 126.2 123.669ZM157.004 181.2C156.803 178.583 156.3 174.858 155.494 170.026C154.79 165.093 153.431 159.808 151.417 154.171H138.28C139.388 159.808 140.092 165.093 140.394 170.026C140.797 174.858 141.099 178.583 141.3 181.2H157.004ZM231.598 181.2C229.585 178.583 226.968 175.009 223.746 170.479C220.525 165.949 217.002 161.117 213.176 155.983C209.351 150.748 205.324 145.514 201.096 140.279C196.969 134.944 192.892 130.162 188.865 125.934L189.469 181.2H231.598ZM293.508 130.615C293.508 132.83 293.055 134.944 292.149 136.957C291.344 138.87 290.237 140.531 288.827 141.94C287.418 143.349 285.707 144.507 283.693 145.413C281.68 146.218 279.566 146.621 277.351 146.621C275.237 146.621 273.174 146.218 271.16 145.413C269.248 144.507 267.587 143.349 266.177 141.94C264.768 140.531 263.61 138.87 262.704 136.957C261.899 134.944 261.496 132.83 261.496 130.615C261.496 128.4 261.899 126.337 262.704 124.424C263.61 122.411 264.768 120.699 266.177 119.29C267.587 117.78 269.248 116.622 271.16 115.817C273.174 114.911 275.237 114.458 277.351 114.458C279.566 114.458 281.68 114.911 283.693 115.817C285.707 116.622 287.418 117.78 288.827 119.29C290.237 120.699 291.344 122.411 292.149 124.424C293.055 126.337 293.508 128.4 293.508 130.615ZM22.3125 21.14C21.2051 23.455 19.4938 25.217 17.1785 26.425C14.8631 27.532 12.2458 27.834 9.3265 27.331C7.21247 26.626 5.40047 25.67 3.89047 24.462C2.5818 23.355 1.5248 21.895 0.71947 20.083C-0.186529 18.271 -0.236863 15.905 0.56847 12.986C1.27314 10.067 2.4308 8.003 4.04147 6.795C5.55147 5.486 7.1118 4.631 8.72247 4.228C10.5345 3.825 12.5478 3.825 14.7625 4.228C15.5678 4.429 16.3731 4.731 17.1785 5.134C17.8831 5.436 18.6381 5.889 19.4435 6.493C20.2488 7.097 21.0038 7.852 21.7085 8.758L17.1785 11.476C16.7758 11.073 16.2725 10.62 15.6685 10.117C15.1651 9.614 14.4605 9.261 13.5545 9.06C11.8431 8.758 10.4841 8.859 9.4775 9.362C8.4708 9.765 7.66547 10.369 7.06147 11.174C6.3568 12.08 5.80314 13.087 5.40047 14.194C5.19914 15.301 5.24947 16.409 5.55147 17.516C5.7528 18.422 6.2058 19.328 6.91047 20.234C7.61514 21.039 8.82314 21.643 10.5345 22.046C12.0445 22.549 13.3531 22.499 14.4605 21.895C15.6685 21.291 16.6751 20.335 17.4805 19.026L22.3125 21.14ZM48.4355 4.228C50.5495 4.329 52.5125 4.83201 54.3245 5.73801C55.8345 6.54301 57.1935 7.751 58.4015 9.362C59.7101 10.872 60.3645 13.087 60.3645 16.006C60.3645 19.026 59.7101 21.341 58.4015 22.952C57.1935 24.462 55.8345 25.62 54.3245 26.425C52.5125 27.331 50.5495 27.834 48.4355 27.935C46.2208 27.834 44.2578 27.331 42.5465 26.425C41.0365 25.62 39.6775 24.462 38.4695 22.952C37.2615 21.341 36.6575 19.026 36.6575 16.006C36.6575 13.087 37.2615 10.872 38.4695 9.362C39.6775 7.751 41.0365 6.54301 42.5465 5.73801C44.2578 4.83201 46.2208 4.329 48.4355 4.228ZM48.4355 22.801C50.1468 22.801 51.4051 22.449 52.2105 21.744C53.1165 21.039 53.8211 20.284 54.3245 19.479C54.8278 18.472 55.1298 17.315 55.2305 16.006C55.1298 14.798 54.8278 13.691 54.3245 12.684C53.8211 11.879 53.1165 11.124 52.2105 10.419C51.4051 9.71401 50.1468 9.362 48.4355 9.362C46.7241 9.362 45.4155 9.71401 44.5095 10.419C43.6035 11.124 42.9491 11.879 42.5465 12.684C42.0431 13.691 41.7915 14.798 41.7915 16.006C41.7915 17.315 42.0431 18.472 42.5465 19.479C42.9491 20.284 43.6035 21.039 44.5095 21.744C45.4155 22.449 46.7241 22.801 48.4355 22.801ZM89.8095 60.702C88.7021 63.017 86.9908 64.779 84.6755 65.987C82.3601 67.094 79.7428 67.396 76.8235 66.893C74.7095 66.188 72.8975 65.232 71.3875 64.024C70.0788 62.917 68.9715 61.457 68.0655 59.645C67.2601 57.833 67.2601 55.467 68.0655 52.548C68.7701 49.629 69.8775 47.565 71.3875 46.357C72.9981 45.048 74.6088 44.193 76.2195 43.79C78.0315 43.387 80.0448 43.387 82.2595 43.79C83.0648 43.991 83.8701 44.293 84.6755 44.696C85.3801 44.998 86.1351 45.451 86.9405 46.055C87.7458 46.659 88.5008 47.414 89.2055 48.32L84.6755 51.038C84.2728 50.635 83.7695 50.182 83.1655 49.679C82.6621 49.176 81.9575 48.823 81.0515 48.622C79.3401 48.32 77.9811 48.421 76.9745 48.924C75.9678 49.327 75.1625 49.931 74.5585 50.736C73.8538 51.642 73.3001 52.649 72.8975 53.756C72.6961 54.863 72.7465 55.971 73.0485 57.078C73.2498 57.984 73.7028 58.89 74.4075 59.796C75.1121 60.601 76.3201 61.205 78.0315 61.608C79.5415 62.111 80.8501 62.061 81.9575 61.457C83.1655 60.853 84.1721 59.897 84.9775 58.588L89.8095 60.702Z" fill="#3F0303"/>
</svg>
