<svg width="329" height="236" viewBox="0 0 329 236" fill="none" xmlns="http://www.w3.org/2000/svg">
<path d="M314.382 235.258H0V230.124H23.707V40.317H11.627V35.334H23.707V18.422H11.627V13.288H23.707V0H28.539V13.288H71.725V18.422H28.539V35.334H71.725V40.317H28.539V230.124H52.548L67.648 197.508H57.38V192.374H70.064L85.013 159.003L74.896 136.655L79.426 134.239L87.882 152.963L95.734 135.145L100.717 137.561L90.6 159.003L105.851 192.374H119.441V197.508H108.267L123.065 230.124H144.809V59.343H207.776V117.78L153.869 118.082L236.617 230.124H270.29C269.082 229.621 267.975 228.916 266.968 228.01C265.961 227.104 265.005 226.047 264.099 224.839C263.193 223.631 262.237 222.373 261.23 221.064C260.324 219.655 259.267 218.245 258.059 216.836C256.247 214.923 254.284 213.313 252.17 212.004C250.157 210.595 248.244 209.236 246.432 207.927C244.62 206.518 243.009 205.058 241.6 203.548C240.191 202.038 239.184 200.176 238.58 197.961C238.077 195.746 238.026 193.632 238.429 191.619C238.932 189.606 239.486 187.643 240.09 185.73C240.795 183.817 241.348 181.905 241.751 179.992C242.254 178.079 242.254 176.066 241.751 173.952C241.248 171.939 240.291 170.177 238.882 168.667C237.473 167.157 235.963 165.748 234.352 164.439C232.741 163.03 231.282 161.671 229.973 160.362C228.664 158.953 227.909 157.342 227.708 155.53C227.507 153.617 227.758 151.956 228.463 150.547C229.168 149.138 230.023 147.678 231.03 146.168C232.137 144.658 233.194 142.997 234.201 141.185C235.308 139.272 236.114 136.957 236.617 134.239C237.02 131.521 237.372 128.904 237.674 126.387C238.077 123.77 238.63 121.454 239.335 119.441C240.04 117.327 240.946 115.565 242.053 114.156C243.261 112.646 244.922 111.69 247.036 111.287C249.15 110.884 251.063 110.985 252.774 111.589C254.485 112.193 256.046 113.149 257.455 114.458C258.864 115.767 260.223 117.377 261.532 119.29C262.941 121.203 264.401 123.216 265.911 125.33C267.421 127.444 269.233 129.206 271.347 130.615C273.461 131.924 275.525 133.182 277.538 134.39C279.652 135.497 281.514 136.705 283.125 138.014C284.836 139.222 285.994 140.883 286.598 142.997C287.202 145.01 287.252 146.973 286.749 148.886C286.246 150.698 285.591 152.51 284.786 154.322C284.081 156.134 283.427 157.946 282.823 159.758C282.219 161.469 282.169 163.231 282.672 165.043C283.276 166.754 284.283 168.264 285.692 169.573C287.202 170.781 288.762 172.039 290.373 173.348C291.984 174.556 293.494 175.915 294.903 177.425C296.413 178.935 297.42 180.848 297.923 183.163C298.326 185.378 298.175 187.693 297.47 190.109C296.765 192.525 295.859 194.84 294.752 197.055C293.745 199.27 292.638 201.333 291.43 203.246C290.323 205.058 289.517 206.518 289.014 207.625C288.511 208.732 288.108 210.393 287.806 212.608C287.504 214.722 287.051 216.987 286.447 219.403C285.843 221.718 284.937 223.883 283.729 225.896C282.622 227.909 280.91 229.319 278.595 230.124H314.382V235.258ZM75.651 192.374H100.264L87.882 165.194L75.651 192.374ZM117.478 230.124L102.68 197.508H73.084L58.135 230.124H117.478ZM202.793 112.646V100.113H149.943V112.948L202.793 112.646ZM202.793 81.842H149.943V94.828H202.793V81.842ZM149.943 64.477V76.859H202.793V64.477H149.943ZM230.426 230.124L149.943 121.102V230.124H230.426ZM324.952 26.878H309.248V3.775H314.382V22.046H324.952V26.878ZM233.899 40.015V57.984H244.318V63.118H228.614V40.015H233.899ZM274.216 44.847V48.924H282.521V54.058H274.216V57.984H285.39V63.118H269.384V40.015H285.39V44.847H274.216ZM234.805 99.056V80.634H228.614V75.5H245.828V80.634H239.637V99.056H234.805ZM274.971 99.056V75.802H280.105V99.056H274.971ZM310.003 76.104H326.009V81.087H314.835V85.164H323.291V90.298H314.835V99.056H310.003V76.104ZM250.811 20.838C249.704 23.153 247.992 24.915 245.677 26.123C243.362 27.23 240.744 27.532 237.825 27.029C235.711 26.324 233.899 25.368 232.389 24.16C231.08 23.053 229.973 21.593 229.067 19.781C228.262 17.969 228.262 15.603 229.067 12.684C229.772 9.765 230.879 7.701 232.389 6.493C234 5.184 235.61 4.329 237.221 3.926C239.033 3.523 241.046 3.523 243.261 3.926C244.066 4.127 244.872 4.429 245.677 4.832C246.382 5.134 247.137 5.587 247.942 6.191C248.747 6.795 249.502 7.55 250.207 8.456L245.677 11.174C245.274 10.771 244.771 10.318 244.167 9.815C243.664 9.312 242.959 8.959 242.053 8.758C240.342 8.456 238.983 8.557 237.976 9.06C236.969 9.463 236.164 10.067 235.56 10.872C234.855 11.778 234.302 12.785 233.899 13.892C233.698 14.999 233.748 16.107 234.05 17.214C234.251 18.12 234.704 19.026 235.409 19.932C236.114 20.737 237.322 21.341 239.033 21.744C240.543 22.247 241.852 22.197 242.959 21.593C244.167 20.989 245.174 20.033 245.979 18.724L250.811 20.838ZM277.387 3.473C279.501 3.574 281.464 4.077 283.276 4.983C284.786 5.788 286.145 6.996 287.353 8.607C288.662 10.117 289.316 12.332 289.316 15.251C289.316 18.271 288.662 20.586 287.353 22.197C286.145 23.707 284.786 24.865 283.276 25.67C281.464 26.576 279.501 27.079 277.387 27.18C275.172 27.079 273.209 26.576 271.498 25.67C269.988 24.865 268.629 23.707 267.421 22.197C266.213 20.586 265.609 18.271 265.609 15.251C265.609 12.332 266.213 10.117 267.421 8.607C268.629 6.996 269.988 5.788 271.498 4.983C273.209 4.077 275.172 3.574 277.387 3.473ZM277.387 22.046C279.098 22.046 280.357 21.694 281.162 20.989C282.068 20.284 282.773 19.529 283.276 18.724C283.779 17.717 284.081 16.56 284.182 15.251C284.081 14.043 283.779 12.936 283.276 11.929C282.773 11.124 282.068 10.369 281.162 9.664C280.357 8.959 279.098 8.607 277.387 8.607C275.676 8.607 274.367 8.959 273.461 9.664C272.555 10.369 271.901 11.124 271.498 11.929C270.995 12.936 270.743 14.043 270.743 15.251C270.743 16.56 270.995 17.717 271.498 18.724C271.901 19.529 272.555 20.284 273.461 20.989C274.367 21.694 275.676 22.046 277.387 22.046ZM328.274 56.927C327.167 59.242 325.455 61.004 323.14 62.212C320.825 63.319 318.207 63.621 315.288 63.118C313.174 62.413 311.362 61.457 309.852 60.249C308.543 59.142 307.436 57.682 306.53 55.87C305.725 54.058 305.725 51.692 306.53 48.773C307.235 45.854 308.342 43.79 309.852 42.582C311.463 41.273 313.073 40.418 314.684 40.015C316.496 39.612 318.509 39.612 320.724 40.015C321.529 40.216 322.335 40.518 323.14 40.921C323.845 41.223 324.6 41.676 325.405 42.28C326.21 42.884 326.965 43.639 327.67 44.545L323.14 47.263C322.737 46.86 322.234 46.407 321.63 45.904C321.127 45.401 320.422 45.048 319.516 44.847C317.805 44.545 316.446 44.646 315.439 45.149C314.432 45.552 313.627 46.156 313.023 46.961C312.318 47.867 311.765 48.874 311.362 49.981C311.161 51.088 311.211 52.196 311.513 53.303C311.714 54.209 312.167 55.115 312.872 56.021C313.577 56.826 314.785 57.43 316.496 57.833C318.006 58.336 319.315 58.286 320.422 57.682C321.63 57.078 322.637 56.122 323.442 54.813L328.274 56.927Z" fill="#3F0303"/>
</svg>
