<svg width="317" height="241" viewBox="0 0 317 241" fill="none" xmlns="http://www.w3.org/2000/svg">
<path d="M239.788 60.098H224.235V37.146H229.369V55.115H239.788V60.098ZM271.347 60.098H255.643V37.146H260.475V55.115H271.347V60.098ZM200.226 85.617H208.833V90.902H200.226V94.677H211.853V99.66H195.243V76.406H211.853V81.54H200.226V85.617ZM274.971 81.087V99.66H269.535V81.087H263.193V76.104H281.162V81.087H274.971ZM244.167 139.222V115.968H249.603V139.222H244.167ZM274.367 125.481H282.521V130.313H274.367V139.222H268.78V116.27H284.937V121.253H274.367V125.481ZM53.303 235.862L53.001 200.226C53.001 195.797 52.9507 191.468 52.85 187.24C52.85 182.911 52.7997 179.086 52.699 175.764C52.699 172.341 52.699 169.623 52.699 167.61C52.699 165.496 52.699 164.389 52.699 164.288C52.699 164.288 53.2023 163.432 54.209 161.721C55.3163 160.01 56.7257 157.795 58.437 155.077C60.1483 152.359 62.061 149.289 64.175 145.866C66.3897 142.443 68.6547 138.97 70.97 135.447L89.09 107.059L90.751 109.475L125.028 163.533V235.862H141.94L193.733 112.646C193.834 112.143 194.035 111.74 194.337 111.438C194.438 111.337 194.488 111.337 194.488 111.438C194.488 111.438 194.891 111.488 195.696 111.589C196.602 111.69 197.709 111.941 199.018 112.344C200.427 112.646 201.988 113.149 203.699 113.854C205.41 114.458 207.122 115.314 208.833 116.421C210.544 117.629 212.256 119.089 213.967 120.8C215.779 122.511 217.39 124.575 218.799 126.991C220.208 129.407 221.316 132.226 222.121 135.447C223.027 138.668 223.43 142.393 223.329 146.621C223.228 149.842 222.725 152.812 221.819 155.53C221.014 158.248 219.906 160.765 218.497 163.08C217.088 165.395 215.527 167.66 213.816 169.875C212.105 171.989 210.343 174.103 208.531 176.217C206.82 178.23 205.159 180.193 203.548 182.106C202.038 184.019 200.679 185.982 199.471 187.995C198.263 190.008 197.357 192.173 196.753 194.488C196.149 196.703 195.948 199.119 196.149 201.736C196.35 204.353 197.005 206.87 198.112 209.286C199.219 211.601 200.629 213.816 202.34 215.93C204.152 218.044 206.115 220.007 208.229 221.819C210.444 223.53 212.658 225.141 214.873 226.651C220.108 230.074 225.946 233.144 232.389 235.862H235.711H254.133C250.509 234.251 247.237 232.238 244.318 229.822C241.399 227.305 238.882 224.487 236.768 221.366C234.755 218.245 233.194 214.873 232.087 211.249C230.98 207.524 230.426 203.699 230.426 199.773C230.426 194.337 231.433 189.203 233.446 184.371C235.56 179.539 238.379 175.361 241.902 171.838C245.425 168.315 249.553 165.546 254.284 163.533C259.116 161.419 264.2 160.362 269.535 160.362C274.971 160.362 280.055 161.419 284.786 163.533C289.618 165.546 293.796 168.315 297.319 171.838C300.842 175.361 303.611 179.539 305.624 184.371C307.738 189.203 308.795 194.337 308.795 199.773C308.795 203.699 308.241 207.524 307.134 211.249C306.027 214.873 304.416 218.245 302.302 221.366C300.289 224.487 297.822 227.305 294.903 229.822C291.984 232.238 288.662 234.251 284.937 235.862H316.798V240.996H0V235.862H20.083L33.22 60.853C29.1933 61.356 25.7707 61.759 22.952 62.061C20.1333 62.363 17.969 62.514 16.459 62.514L16.308 57.531C17.9187 57.531 20.1333 57.33 22.952 56.927C25.7707 56.424 29.294 55.87 33.522 55.266L35.485 27.18C28.841 28.086 24.1097 28.539 21.291 28.539L21.14 23.707C22.5493 23.606 24.462 23.455 26.878 23.254C29.294 22.952 32.2133 22.549 35.636 22.046L36.391 13.741L41.525 14.194L41.072 20.989C45.8033 20.083 50.9877 19.026 56.625 17.818C62.2623 16.509 68.0003 14.999 73.839 13.288C79.7783 11.476 85.617 9.513 91.355 7.399C97.093 5.184 102.428 2.718 107.361 0L110.23 4.077C104.995 7.097 99.358 9.815 93.318 12.231C87.278 14.546 81.1373 16.61 74.896 18.422C68.7553 20.234 62.7153 21.794 56.776 23.103C50.8367 24.311 45.4007 25.318 40.468 26.123L38.656 54.36C43.0853 53.655 47.8167 52.8 52.85 51.793C57.8833 50.686 63.0173 49.427 68.252 48.018C73.4867 46.508 78.6207 44.847 83.654 43.035C88.6873 41.223 93.419 39.159 97.848 36.844L100.264 41.525C95.533 43.84 90.4993 46.005 85.164 48.018C79.9293 49.931 74.594 51.642 69.158 53.152C63.722 54.662 58.3363 56.021 53.001 57.229C47.6657 58.336 42.6827 59.242 38.052 59.947L25.217 236.013L53.303 235.862ZM119.894 229.369V170.63L93.167 200.226L119.894 229.369ZM89.392 196.602L115.364 167.912L63.42 168.365L89.392 196.602ZM88.788 116.27L59.494 163.08L118.233 162.627L88.788 116.27ZM58.286 170.328V230.577L85.919 200.226L58.286 170.328ZM89.392 204.152L60.702 235.862H118.988L89.392 204.152ZM147.376 235.862H218.195C215.175 234.453 212.105 232.741 208.984 230.728C205.964 228.614 203.196 226.198 200.679 223.48C198.162 220.762 196.048 217.641 194.337 214.118C192.726 210.595 191.77 206.618 191.468 202.189C191.267 199.068 191.518 196.149 192.223 193.431C192.928 190.713 193.884 188.196 195.092 185.881C196.401 183.566 197.86 181.351 199.471 179.237C201.182 177.123 202.894 175.059 204.605 173.046C206.417 171.033 208.128 169.07 209.739 167.157C211.35 165.144 212.759 163.08 213.967 160.966C215.276 158.852 216.282 156.637 216.987 154.322C217.792 151.906 218.195 149.339 218.195 146.621C218.296 141.185 217.541 136.655 215.93 133.031C214.42 129.306 212.558 126.337 210.343 124.122C208.128 121.807 205.813 120.095 203.397 118.988C200.981 117.881 198.968 117.126 197.357 116.723L147.376 235.862ZM171.083 53.454C169.976 55.769 168.264 57.531 165.949 58.739C163.634 59.846 161.016 60.148 158.097 59.645C155.983 58.94 154.171 57.984 152.661 56.776C151.352 55.669 150.245 54.209 149.339 52.397C148.534 50.585 148.534 48.219 149.339 45.3C150.044 42.381 151.151 40.317 152.661 39.109C154.272 37.8 155.882 36.945 157.493 36.542C159.305 36.139 161.318 36.139 163.533 36.542C164.338 36.743 165.144 37.045 165.949 37.448C166.654 37.75 167.409 38.203 168.214 38.807C169.019 39.411 169.774 40.166 170.479 41.072L165.949 43.79C165.546 43.387 165.043 42.934 164.439 42.431C163.936 41.928 163.231 41.575 162.325 41.374C160.614 41.072 159.255 41.173 158.248 41.676C157.241 42.079 156.436 42.683 155.832 43.488C155.127 44.394 154.574 45.401 154.171 46.508C153.97 47.615 154.02 48.723 154.322 49.83C154.523 50.736 154.976 51.642 155.681 52.548C156.386 53.353 157.594 53.957 159.305 54.36C160.815 54.863 162.124 54.813 163.231 54.209C164.439 53.605 165.446 52.649 166.251 51.34L171.083 53.454ZM197.206 36.542C199.32 36.643 201.283 37.146 203.095 38.052C204.605 38.857 205.964 40.065 207.172 41.676C208.481 43.186 209.135 45.401 209.135 48.32C209.135 51.34 208.481 53.655 207.172 55.266C205.964 56.776 204.605 57.934 203.095 58.739C201.283 59.645 199.32 60.148 197.206 60.249C194.991 60.148 193.028 59.645 191.317 58.739C189.807 57.934 188.448 56.776 187.24 55.266C186.032 53.655 185.428 51.34 185.428 48.32C185.428 45.401 186.032 43.186 187.24 41.676C188.448 40.065 189.807 38.857 191.317 38.052C193.028 37.146 194.991 36.643 197.206 36.542ZM197.206 55.115C198.917 55.115 200.176 54.763 200.981 54.058C201.887 53.353 202.592 52.598 203.095 51.793C203.598 50.786 203.9 49.629 204.001 48.32C203.9 47.112 203.598 46.005 203.095 44.998C202.592 44.193 201.887 43.438 200.981 42.733C200.176 42.028 198.917 41.676 197.206 41.676C195.495 41.676 194.186 42.028 193.28 42.733C192.374 43.438 191.72 44.193 191.317 44.998C190.814 46.005 190.562 47.112 190.562 48.32C190.562 49.629 190.814 50.786 191.317 51.793C191.72 52.598 192.374 53.353 193.28 54.058C194.186 54.763 195.495 55.115 197.206 55.115ZM249.452 93.016C248.345 95.331 246.633 97.093 244.318 98.301C242.003 99.408 239.385 99.71 236.466 99.207C234.352 98.502 232.54 97.546 231.03 96.338C229.721 95.231 228.614 93.771 227.708 91.959C226.903 90.147 226.903 87.781 227.708 84.862C228.413 81.943 229.52 79.879 231.03 78.671C232.641 77.362 234.251 76.507 235.862 76.104C237.674 75.701 239.687 75.701 241.902 76.104C242.707 76.305 243.513 76.607 244.318 77.01C245.023 77.312 245.778 77.765 246.583 78.369C247.388 78.973 248.143 79.728 248.848 80.634L244.318 83.352C243.915 82.949 243.412 82.496 242.808 81.993C242.305 81.49 241.6 81.137 240.694 80.936C238.983 80.634 237.624 80.735 236.617 81.238C235.61 81.641 234.805 82.245 234.201 83.05C233.496 83.956 232.943 84.963 232.54 86.07C232.339 87.177 232.389 88.285 232.691 89.392C232.892 90.298 233.345 91.204 234.05 92.11C234.755 92.915 235.963 93.519 237.674 93.922C239.184 94.425 240.493 94.375 241.6 93.771C242.808 93.167 243.815 92.211 244.62 90.902L249.452 93.016Z" fill="#3F0303"/>
</svg>
