<svg width="317" height="243" viewBox="0 0 317 243" fill="none" xmlns="http://www.w3.org/2000/svg">
<path d="M317 237.859V243H0V237.859H21.4454V107.815V102.825V83.772V82.563H99.223V130.648H26.5803V237.859H66.2997L114.778 175.105L102.697 159.077L106.774 156.052L118.252 170.72L129.428 156.052L133.808 159.077L121.424 175.105L169.902 237.859H179.417V129.892C179.518 129.892 180.071 129.892 181.078 129.892C182.186 129.892 183.595 129.993 185.307 130.195C187.018 130.296 188.881 130.548 190.895 130.951C193.009 131.354 195.123 132.009 197.238 132.917C202.675 134.933 206.803 137.806 209.622 141.536C212.441 145.266 213.85 149.701 213.85 154.843C213.85 160.891 211.837 165.932 207.809 169.964C206.098 171.678 204.235 173.089 202.222 174.198C200.208 175.307 198.144 176.214 196.03 176.92C193.915 177.625 191.902 178.129 189.989 178.432C188.076 178.734 186.364 178.936 184.854 179.037V197.031L224.12 237.859H259.913C257.597 235.742 255.734 232.869 254.325 229.24C252.915 225.51 251.757 221.276 250.851 216.538C250.046 211.699 249.391 206.558 248.888 201.114C248.385 195.67 247.932 190.176 247.529 184.632C247.428 183.119 247.176 180.146 246.774 175.71C246.371 171.274 245.868 165.932 245.263 159.681C244.659 153.33 243.955 146.324 243.149 138.663C242.444 131.001 241.689 123.239 240.884 115.376C240.078 107.513 239.273 99.851 238.467 92.391C237.662 84.831 236.907 77.976 236.202 71.826C235.598 65.677 234.994 60.536 234.39 56.403C233.886 52.169 233.534 49.497 233.333 48.388C232.124 43.146 231.47 38.459 231.369 34.325C231.269 30.192 231.47 26.563 231.973 23.438C232.577 20.212 233.433 17.49 234.541 15.273C235.648 12.954 236.806 11.039 238.014 9.526C240.934 6.099 244.257 3.68 247.982 2.268C251.808 0.756098 255.13 0 257.949 0C266.105 0.3024 272.7 3.528 277.734 9.678C282.768 15.726 286.493 25.051 288.909 37.652C289.212 39.063 289.614 42.138 290.118 46.876C290.621 51.614 291.175 57.461 291.779 64.417C292.484 71.272 293.138 78.933 293.742 87.401C294.447 95.869 295.101 104.589 295.706 113.561C296.41 122.533 297.014 131.404 297.518 140.175C298.021 148.945 298.374 157.111 298.575 164.671C298.877 172.131 298.978 178.684 298.877 184.329C298.877 189.874 298.676 193.956 298.273 196.577C297.669 200.408 296.863 204.39 295.857 208.523C294.85 212.656 293.541 216.588 291.93 220.318C290.42 224.048 288.557 227.475 286.342 230.6C284.228 233.625 281.761 236.044 278.942 237.859H317ZM184.854 174.198C186.163 174.097 187.623 173.895 189.233 173.593C190.945 173.291 192.707 172.887 194.519 172.383C196.332 171.778 198.094 171.022 199.805 170.115C201.517 169.208 203.027 168.049 204.336 166.637C207.256 163.411 208.716 159.48 208.716 154.843C208.716 146.979 204.336 141.284 195.576 137.755C193.563 136.949 191.599 136.395 189.687 136.092C187.874 135.79 186.263 135.538 184.854 135.336V174.198ZM27.3354 113.864H94.088V98.894H27.3354V113.864ZM95.9 208.372H140.453L118.252 179.49L95.9 208.372ZM163.559 238.161L144.379 213.513H91.9738L73.0958 238.161H163.559ZM217.022 238.161L184.854 204.743V238.161H217.022ZM270.636 236.195C274.26 235.49 277.331 233.625 279.848 230.6C282.466 227.576 284.681 224.098 286.493 220.167C288.305 216.134 289.765 211.951 290.873 207.616C291.98 203.281 292.786 199.35 293.289 195.821C293.692 193.301 293.893 189.319 293.893 183.876C293.994 178.331 293.893 171.879 293.591 164.52C293.289 157.06 292.886 148.996 292.383 140.326C291.88 131.556 291.326 122.735 290.722 113.864C290.118 104.993 289.463 96.373 288.758 88.006C288.054 79.538 287.399 71.927 286.795 65.173C286.191 58.318 285.637 52.572 285.134 47.935C284.63 43.197 284.278 40.172 284.077 38.862C279.747 16.886 270.988 5.746 257.798 5.444H257.496C255.281 5.444 252.714 5.998 249.794 7.107C246.975 8.216 244.357 10.182 241.941 13.004C239.021 16.633 237.259 21.422 236.655 27.37C236.051 33.217 236.655 39.92 238.467 47.481C238.669 48.59 239.021 51.261 239.525 55.495C240.129 59.729 240.733 64.921 241.337 71.07C242.042 77.22 242.746 84.075 243.451 91.635C244.257 99.196 245.062 106.958 245.868 114.922C246.673 122.785 247.428 130.548 248.133 138.209C248.938 145.871 249.643 152.877 250.247 159.228C250.851 165.579 251.355 171.022 251.757 175.559C252.261 180.095 252.563 183.119 252.664 184.632C253.167 191.184 253.721 197.636 254.325 203.987C254.929 210.237 255.835 215.933 257.043 221.074C258.453 226.316 260.064 230.147 261.876 232.566C263.688 234.986 265.903 236.195 268.521 236.195H270.636ZM216.267 45.515H200.56V22.38H205.695V40.676H216.267V45.515ZM125.199 58.671V76.665H135.62V81.806H119.913V58.671H125.199ZM165.523 63.51V67.592H173.829V72.734H165.523V76.665H176.698V81.806H160.69V58.671H176.698V63.51H165.523ZM126.105 117.795V99.347H119.913V94.206H137.13V99.347H130.938V117.795H126.105ZM166.278 117.795V94.508H171.413V117.795H166.278ZM201.315 94.811H217.324V99.801H206.148V103.884H214.606V109.025H206.148V117.795H201.315V94.811ZM142.114 39.467C141.006 41.785 139.295 43.549 136.979 44.759C134.663 45.868 132.046 46.171 129.126 45.666C127.011 44.961 125.199 44.003 123.689 42.793C122.38 41.685 121.273 40.223 120.366 38.408C119.561 36.594 119.561 34.225 120.366 31.301C121.071 28.378 122.179 26.311 123.689 25.101C125.3 23.791 126.911 22.934 128.522 22.531C130.334 22.128 132.348 22.128 134.563 22.531C135.368 22.732 136.174 23.035 136.979 23.438C137.684 23.741 138.439 24.194 139.244 24.799C140.05 25.404 140.805 26.16 141.51 27.067L136.979 29.789C136.576 29.386 136.073 28.932 135.469 28.428C134.965 27.924 134.261 27.571 133.354 27.37C131.643 27.067 130.284 27.168 129.277 27.672C128.27 28.075 127.464 28.68 126.86 29.487C126.156 30.394 125.602 31.402 125.199 32.511C124.998 33.62 125.048 34.729 125.35 35.838C125.552 36.745 126.005 37.652 126.709 38.559C127.414 39.366 128.622 39.971 130.334 40.374C131.844 40.878 133.153 40.828 134.261 40.223C135.469 39.618 136.476 38.66 137.281 37.35L142.114 39.467ZM168.694 22.077C170.808 22.178 172.772 22.682 174.584 23.589C176.094 24.396 177.454 25.605 178.662 27.218C179.971 28.731 180.625 30.948 180.625 33.872C180.625 36.896 179.971 39.215 178.662 40.828C177.454 42.34 176.094 43.499 174.584 44.306C172.772 45.213 170.808 45.717 168.694 45.818C166.479 45.717 164.516 45.213 162.804 44.306C161.294 43.499 159.935 42.34 158.727 40.828C157.518 39.215 156.914 36.896 156.914 33.872C156.914 30.948 157.518 28.731 158.727 27.218C159.935 25.605 161.294 24.396 162.804 23.589C164.516 22.682 166.479 22.178 168.694 22.077ZM168.694 40.676C170.406 40.676 171.664 40.324 172.47 39.618C173.376 38.912 174.081 38.156 174.584 37.35C175.087 36.342 175.39 35.182 175.49 33.872C175.39 32.662 175.087 31.553 174.584 30.545C174.081 29.739 173.376 28.983 172.47 28.277C171.664 27.571 170.406 27.218 168.694 27.218C166.983 27.218 165.674 27.571 164.768 28.277C163.861 28.983 163.207 29.739 162.804 30.545C162.301 31.553 162.049 32.662 162.049 33.872C162.049 35.182 162.301 36.342 162.804 37.35C163.207 38.156 163.861 38.912 164.768 39.618C165.674 40.324 166.983 40.676 168.694 40.676ZM219.589 75.607C218.482 77.925 216.77 79.689 214.454 80.899C212.139 82.008 209.521 82.311 206.601 81.806C204.487 81.101 202.675 80.143 201.164 78.933C199.855 77.825 198.748 76.363 197.842 74.548C197.036 72.734 197.036 70.365 197.842 67.441C198.547 64.518 199.654 62.451 201.164 61.241C202.775 59.931 204.386 59.074 205.997 58.671C207.809 58.268 209.823 58.268 212.038 58.671C212.844 58.872 213.649 59.175 214.454 59.578C215.159 59.881 215.914 60.334 216.72 60.939C217.525 61.544 218.28 62.3 218.985 63.207L214.454 65.929C214.052 65.526 213.548 65.072 212.944 64.568C212.441 64.064 211.736 63.711 210.83 63.51C209.118 63.207 207.759 63.308 206.752 63.812C205.745 64.215 204.94 64.82 204.336 65.627C203.631 66.534 203.077 67.542 202.675 68.651C202.473 69.76 202.524 70.869 202.826 71.978C203.027 72.885 203.48 73.792 204.185 74.699C204.89 75.506 206.098 76.111 207.809 76.514C209.32 77.018 210.629 76.968 211.736 76.363C212.944 75.758 213.951 74.8 214.757 73.49L219.589 75.607Z" fill="#3F0303"/>
</svg>
