<svg width="317" height="218" viewBox="0 0 317 218" fill="none" xmlns="http://www.w3.org/2000/svg">
<path d="M200.528 17.969V23.254H184.522V0H189.505V17.969H200.528ZM231.785 17.969V23.254H216.081V0H220.913V17.969H231.785ZM253.076 4.832V8.909H261.381V13.741H253.076V17.969H264.099V23.254H247.64V0H264.099V4.832H253.076ZM223.178 44.092H217.138V62.816H212.004V44.092H205.964V39.109H223.178V44.092ZM247.791 62.816H242.959V39.109H247.791V62.816ZM221.366 84.409V88.335H230.124V93.469H221.366V102.378H216.534V79.275H232.54V84.409H221.366ZM316.798 212.306V217.44H0V212.306H26.274V43.639H30.351C33.975 43.639 37.9513 43.639 42.28 43.639C46.7093 43.639 51.2393 43.689 55.87 43.79C60.5007 43.891 65.1817 44.142 69.913 44.545C74.6443 44.847 79.1743 45.35 83.503 46.055C87.8317 46.659 91.808 47.515 95.432 48.622C99.157 49.729 102.277 51.088 104.794 52.699L108.267 54.813L104.794 57.229C102.277 58.84 99.207 60.199 95.583 61.306C92.0597 62.313 88.1337 63.168 83.805 63.873C79.577 64.477 75.1477 64.98 70.517 65.383C65.8863 65.685 61.2557 65.937 56.625 66.138C51.9943 66.239 47.5147 66.289 43.186 66.289C38.958 66.289 35.0823 66.289 31.559 66.289V77.916C35.0823 77.916 38.958 77.966 43.186 78.067C47.5147 78.067 51.9943 78.117 56.625 78.218C61.2557 78.319 65.8863 78.57 70.517 78.973C75.1477 79.275 79.577 79.778 83.805 80.483C88.1337 81.087 92.0597 81.943 95.583 83.05C99.207 84.057 102.277 85.315 104.794 86.825L108.267 89.09L104.794 91.506C102.277 93.117 99.207 94.425 95.583 95.432C92.0597 96.439 88.1337 97.294 83.805 97.999C79.577 98.603 75.1477 99.106 70.517 99.509C65.8863 99.811 61.2557 100.012 56.625 100.113C51.9943 100.214 47.5147 100.314 43.186 100.415C38.958 100.415 35.0823 100.415 31.559 100.415V212.306H44.847C44.847 210.091 44.8973 207.877 44.998 205.662C45.0987 203.347 45.451 201.132 46.055 199.018C46.659 196.904 47.565 194.891 48.773 192.978C49.981 190.965 51.6923 189.153 53.907 187.542C55.6183 182.71 58.5377 178.784 62.665 175.764C63.6717 172.442 65.1817 169.674 67.195 167.459C69.309 165.144 71.8257 163.181 74.745 161.57C78.4697 154.221 85.164 149.943 94.828 148.735V137.561H99.962V148.735C104.794 149.238 108.921 150.547 112.344 152.661C115.767 154.775 118.384 157.745 120.196 161.57C126.236 164.59 130.162 169.221 131.974 175.462C136.202 178.583 139.121 182.609 140.732 187.542C142.947 189.153 144.658 190.914 145.866 192.827C147.175 194.74 148.131 196.753 148.735 198.867C149.339 200.981 149.691 203.196 149.792 205.511C149.893 207.726 149.943 209.991 149.943 212.306L166.251 212.155V55.568H171.083C175.714 55.568 180.042 56.776 184.069 59.192C188.196 61.608 191.82 64.93 194.941 69.158C198.062 73.285 200.528 78.117 202.34 83.654C204.152 89.09 205.058 94.929 205.058 101.17C205.058 107.21 204.152 112.948 202.34 118.384C200.629 123.719 198.263 128.4 195.243 132.427C192.324 136.454 188.851 139.675 184.824 142.091C180.898 144.507 176.67 145.765 172.14 145.866L223.329 212.306H259.871C258.562 212.205 257.354 211.501 256.247 210.192C255.039 211.098 253.781 211.551 252.472 211.551C252.069 211.45 251.667 211.4 251.264 211.4C249.049 210.897 247.59 209.739 246.885 207.927C245.778 208.632 244.57 208.984 243.261 208.984C242.858 208.984 242.456 208.934 242.053 208.833C241.751 208.732 241.399 208.632 240.996 208.531C239.385 207.826 238.328 206.367 237.825 204.152C237.322 204.253 236.869 204.303 236.466 204.303C236.164 204.303 235.812 204.303 235.409 204.303C234.805 204.303 234.251 204.253 233.748 204.152C233.245 204.051 232.741 203.8 232.238 203.397C231.533 202.793 230.929 202.139 230.426 201.434C230.023 200.629 229.822 199.672 229.822 198.565H228.463C227.054 198.565 225.594 197.911 224.084 196.602C222.775 195.293 222.272 193.481 222.574 191.166C221.366 191.065 220.359 190.763 219.554 190.26C218.849 189.757 218.296 189.203 217.893 188.599C216.786 186.787 216.886 184.522 218.195 181.804C216.786 181.401 215.729 180.848 215.024 180.143C214.319 179.438 213.816 178.683 213.514 177.878C213.313 177.073 213.212 176.217 213.212 175.311C213.313 174.304 213.665 173.398 214.269 172.593C212.256 171.586 211.048 170.127 210.645 168.214C210.444 166.1 211.098 164.288 212.608 162.778C210.897 161.268 210.192 159.657 210.494 157.946C210.494 155.933 211.35 154.322 213.061 153.114C211.853 151.403 211.45 149.54 211.853 147.527C212.256 146.017 213.313 144.708 215.024 143.601C214.219 141.789 214.168 140.128 214.873 138.618C215.779 136.705 217.138 135.548 218.95 135.145C218.447 133.132 218.749 131.37 219.856 129.86C220.259 129.357 220.863 128.853 221.668 128.35C222.574 127.746 223.832 127.444 225.443 127.444C225.242 124.927 225.795 123.115 227.104 122.008C227.809 121.505 228.513 121.102 229.218 120.8C229.923 120.498 230.678 120.448 231.483 120.649H232.54C232.641 118.736 233.547 117.176 235.258 115.968C236.265 115.465 237.271 115.213 238.278 115.213C239.083 115.213 239.738 115.314 240.241 115.515C240.946 112.596 242.254 110.834 244.167 110.23C245.174 109.827 245.878 109.626 246.281 109.626C247.288 109.928 248.345 110.28 249.452 110.683C250.358 109.173 251.918 108.267 254.133 107.965H255.341C257.153 107.965 258.663 108.619 259.871 109.928C261.381 108.418 263.092 107.663 265.005 107.663C267.119 107.663 268.73 108.519 269.837 110.23C271.146 108.921 272.555 108.418 274.065 108.72H275.273C276.38 108.921 277.236 109.324 277.84 109.928C278.545 110.532 279.149 111.337 279.652 112.344C280.558 112.042 281.514 111.891 282.521 111.891C283.326 111.891 284.031 112.042 284.635 112.344C286.548 113.149 287.705 114.609 288.108 116.723C289.014 116.421 289.668 116.32 290.071 116.421C291.178 116.421 292.235 116.773 293.242 117.478C295.255 118.686 296.111 120.548 295.809 123.065H297.319C298.93 123.065 300.389 123.719 301.698 125.028C302.906 126.739 303.309 128.602 302.906 130.615C304.517 130.716 305.674 131.068 306.379 131.672C307.084 132.175 307.637 132.679 308.04 133.182C308.241 133.685 308.443 134.289 308.644 134.994C308.845 135.598 308.896 136.303 308.795 137.108C309.902 137.611 310.708 138.215 311.211 138.92C311.714 139.524 312.117 140.128 312.419 140.732C313.124 142.645 312.872 144.406 311.664 146.017C313.476 147.124 314.432 148.685 314.533 150.698C315.036 152.812 314.382 154.775 312.57 156.587C314.684 157.896 315.691 159.657 315.59 161.872C315.59 163.986 314.734 165.597 313.023 166.704C314.533 168.315 315.036 170.076 314.533 171.989C314.03 174.103 312.721 175.512 310.607 176.217C311.614 178.331 311.815 180.244 311.211 181.955C310.204 183.868 308.745 185.025 306.832 185.428C307.235 187.542 306.983 189.304 306.077 190.713C305.574 191.317 304.869 191.921 303.963 192.525C303.057 193.129 301.899 193.431 300.49 193.431C300.691 194.84 300.641 195.998 300.339 196.904C300.037 197.81 299.534 198.666 298.829 199.471C297.722 200.578 296.262 201.132 294.45 201.132C294.148 201.031 293.745 200.981 293.242 200.981C293.041 202.088 292.739 203.095 292.336 204.001C291.933 204.806 291.329 205.461 290.524 205.964C289.719 206.467 288.662 206.719 287.353 206.719C286.246 206.719 285.34 206.568 284.635 206.266C284.132 207.273 283.125 208.179 281.615 208.984C281.112 209.085 280.357 209.135 279.35 209.135C278.243 209.135 277.035 208.732 275.726 207.927C274.82 209.94 273.36 211.098 271.347 211.4C271.045 211.501 270.642 211.551 270.139 211.551C268.629 211.35 267.32 210.796 266.213 209.89C265.71 210.494 265.106 211.048 264.401 211.551C263.797 211.954 263.193 212.205 262.589 212.306H316.798ZM31.559 60.853C36.089 60.853 41.4747 60.903 47.716 61.004C53.9573 61.105 60.1987 61.054 66.44 60.853C72.782 60.551 78.7717 59.997 84.409 59.192C90.0463 58.286 94.576 56.826 97.999 54.813C94.576 53.001 90.0463 51.692 84.409 50.887C78.7717 50.082 72.782 49.578 66.44 49.377C60.1987 49.075 53.9573 48.974 47.716 49.075C41.4747 49.075 36.089 49.025 31.559 48.924V60.853ZM31.559 94.828C36.089 94.828 41.4747 94.878 47.716 94.979C53.9573 95.08 60.1987 95.029 66.44 94.828C72.782 94.526 78.7717 93.972 84.409 93.167C90.0463 92.362 94.576 91.003 97.999 89.09C94.576 87.278 90.0463 85.969 84.409 85.164C78.7717 84.258 72.782 83.704 66.44 83.503C60.1987 83.201 53.9573 83.1 47.716 83.201C41.4747 83.302 36.089 83.302 31.559 83.201V94.828ZM97.848 154.322C90.0967 154.624 84.6607 156.788 81.54 160.815H113.401C111.69 158.802 109.626 157.292 107.21 156.285C104.794 155.178 101.673 154.523 97.848 154.322ZM77.614 166.251C73.5873 168.164 70.668 171.083 68.856 175.009H126.236C124.625 171.184 121.706 168.264 117.478 166.251H77.614ZM65.232 180.596C63.118 181.905 61.457 183.817 60.249 186.334H134.39C133.182 183.817 131.521 181.905 129.407 180.596H65.232ZM144.356 212.306C144.356 210.192 144.306 208.179 144.205 206.266C144.104 204.253 143.802 202.39 143.299 200.679C142.896 198.968 142.242 197.357 141.336 195.847C140.43 194.337 139.121 192.978 137.41 191.77H57.531C55.719 192.978 54.3097 194.337 53.303 195.847C52.2963 197.357 51.5413 198.968 51.038 200.679C50.6353 202.39 50.3837 204.253 50.283 206.266C50.283 208.179 50.283 210.192 50.283 212.306H144.356ZM171.838 140.43C175.663 140.329 179.237 139.222 182.559 137.108C185.982 134.994 188.901 132.175 191.317 128.652C193.834 125.028 195.797 120.901 197.206 116.27C198.716 111.539 199.471 106.505 199.471 101.17C199.471 95.734 198.716 90.6 197.206 85.768C195.797 80.936 193.834 76.708 191.317 73.084C188.8 69.46 185.831 66.591 182.408 64.477C179.086 62.262 175.563 61.155 171.838 61.155V140.43ZM261.23 207.172C261.834 207.172 262.539 205.964 263.344 203.548L265.307 197.81L268.176 203.397C268.679 204.504 269.132 205.259 269.535 205.662C269.938 206.065 270.24 206.266 270.441 206.266C270.642 206.065 270.894 205.662 271.196 205.058C271.498 204.454 271.699 203.548 271.8 202.34L272.555 196.3L276.481 201.132C277.588 202.34 278.343 203.045 278.746 203.246C279.149 203.447 279.451 203.548 279.652 203.548C280.155 203.548 280.407 202.944 280.407 201.736L280.86 196.3L284.635 199.773C285.541 200.478 286.195 200.88 286.598 200.981C287.001 201.082 287.252 201.132 287.353 201.132C288.058 201.031 288.158 199.924 287.655 197.81L286.145 191.468L291.43 194.337C292.336 194.941 292.99 195.344 293.393 195.545C293.896 195.746 294.299 195.847 294.601 195.847C294.802 195.847 294.953 195.797 295.054 195.696C295.155 195.696 295.205 195.646 295.205 195.545C295.306 195.444 295.255 195.042 295.054 194.337C294.953 193.532 294.5 192.424 293.695 191.015L290.524 185.126L297.017 187.391C297.822 187.592 298.426 187.794 298.829 187.995C299.332 188.096 299.785 188.146 300.188 188.146C300.893 188.146 301.295 188.045 301.396 187.844C301.698 187.441 301.245 186.284 300.037 184.371L296.413 179.539L302.453 180.294H303.359C304.366 180.495 305.07 180.495 305.473 180.294C305.876 180.093 306.127 179.942 306.228 179.841C306.228 179.64 306.077 179.287 305.775 178.784C305.473 178.18 304.919 177.475 304.114 176.67L298.98 172.291L305.624 171.838C308.04 171.838 309.248 171.486 309.248 170.781C309.349 170.378 308.543 169.523 306.832 168.214L301.245 165.043L307.285 163.382C308.493 163.08 309.298 162.778 309.701 162.476C310.204 162.174 310.456 161.872 310.456 161.57C310.456 161.469 310.104 161.218 309.399 160.815C308.795 160.412 307.738 159.959 306.228 159.456L299.282 157.493L305.775 154.322C307.285 153.718 308.241 153.215 308.644 152.812C309.147 152.309 309.399 151.856 309.399 151.453C309.399 151.252 309.147 151.05 308.644 150.849C308.241 150.547 307.537 150.346 306.53 150.245L300.49 149.037L305.322 145.413C306.832 144.004 307.587 142.997 307.587 142.393C307.386 142.292 307.084 142.192 306.681 142.091C306.379 141.99 305.825 141.94 305.02 141.94L300.188 141.789L302.604 137.863C303.107 136.856 303.309 136.303 303.208 136.202C302.805 135.799 302.453 135.598 302.151 135.598C301.748 135.598 301.346 135.648 300.943 135.749C300.641 135.85 300.238 136.001 299.735 136.202L293.393 137.561L296.564 132.276C297.369 131.169 297.772 130.363 297.772 129.86C297.772 129.357 297.772 129.004 297.772 128.803C297.671 128.702 297.52 128.652 297.319 128.652C297.118 128.652 296.665 128.702 295.96 128.803C295.356 128.904 294.45 129.256 293.242 129.86L287.202 133.031L289.618 126.387C290.524 123.568 290.675 122.058 290.071 121.857C289.87 121.857 289.517 121.907 289.014 122.008C288.511 122.109 287.907 122.461 287.202 123.065L282.219 126.689L282.974 120.649C282.974 118.636 282.823 117.478 282.521 117.176H282.219C282.118 117.176 281.867 117.277 281.464 117.478C281.162 117.579 280.608 118.032 279.803 118.837L275.424 123.065L274.971 117.176C274.77 115.062 274.468 114.005 274.065 114.005C273.36 113.804 272.454 114.609 271.347 116.421L268.176 121.857L266.515 115.817C266.012 113.703 265.458 112.646 264.854 112.646C264.049 112.646 263.294 113.854 262.589 116.27L260.475 122.612L257.757 116.421C256.952 114.81 256.297 113.753 255.794 113.25C255.492 112.948 255.24 112.797 255.039 112.797C254.636 112.797 254.183 113.804 253.68 115.817L252.623 121.253L248.546 117.025C247.741 116.119 247.137 115.565 246.734 115.364C246.432 115.163 246.231 115.062 246.13 115.062C245.929 115.163 245.727 115.565 245.526 116.27C245.325 116.975 245.375 118.183 245.677 119.894L246.281 126.84L241.298 122.31C240.795 121.907 240.342 121.605 239.939 121.404C239.536 121.102 239.234 120.901 239.033 120.8C238.731 120.699 238.479 120.649 238.278 120.649C237.775 120.75 237.624 121.857 237.825 123.971L239.335 129.86L233.899 127.142C233.194 126.639 232.59 126.387 232.087 126.387C231.684 126.286 231.433 126.236 231.332 126.236C231.231 126.135 231.131 126.085 231.03 126.085C230.929 126.085 230.879 126.135 230.879 126.236C230.678 126.337 230.577 126.739 230.577 127.444C230.678 128.048 230.98 128.853 231.483 129.86L234.201 135.447L228.463 133.484C226.953 132.981 225.946 132.729 225.443 132.729C224.839 132.729 224.386 132.83 224.084 133.031C224.084 133.132 224.134 133.434 224.235 133.937C224.436 134.44 224.94 135.195 225.745 136.202L229.067 140.732L223.027 140.279H222.272C221.467 140.078 220.863 140.078 220.46 140.279C220.057 140.38 219.806 140.531 219.705 140.732C219.705 141.235 220.259 142.041 221.366 143.148L225.443 147.074L219.856 147.829C218.849 147.93 218.145 148.081 217.742 148.282C217.44 148.483 217.188 148.634 216.987 148.735C216.987 149.339 217.792 150.245 219.403 151.453L224.537 154.775L218.648 156.587C217.44 156.788 216.635 157.04 216.232 157.342C215.93 157.644 215.779 157.845 215.779 157.946C215.477 158.449 216.383 159.104 218.497 159.909L224.537 162.174L218.95 164.741C217.843 165.244 217.088 165.748 216.685 166.251C216.282 166.654 216.081 166.956 216.081 167.157C216.081 167.66 217.188 168.164 219.403 168.667L225.745 169.422L220.611 173.197C219.806 173.801 219.252 174.405 218.95 175.009C218.648 175.512 218.547 175.814 218.648 175.915C218.648 176.116 219.403 176.368 220.913 176.67C221.316 176.67 221.668 176.67 221.97 176.67C222.373 176.67 222.826 176.569 223.329 176.368L230.879 175.764L225.745 181.351C224.336 182.559 223.379 183.566 222.876 184.371C222.473 185.176 222.373 185.68 222.574 185.881C222.574 186.082 222.675 186.183 222.876 186.183C223.178 186.183 223.379 186.183 223.48 186.183C223.983 186.183 224.436 186.133 224.839 186.032C225.242 185.931 225.695 185.881 226.198 185.881L231.785 184.371L229.067 189.505C228.262 191.317 227.96 192.475 228.161 192.978H228.614C228.815 192.978 229.168 192.928 229.671 192.827C230.275 192.726 231.08 192.424 232.087 191.921L237.372 189.354L235.711 195.394C235.308 196.602 235.107 197.458 235.107 197.961C235.208 198.464 235.308 198.817 235.409 199.018C235.812 199.018 236.214 198.917 236.617 198.716C237.12 198.515 237.775 198.112 238.58 197.508L243.412 193.582L242.657 199.924C242.657 201.031 242.707 201.837 242.808 202.34C242.909 202.843 243.06 203.196 243.261 203.397H243.412C243.613 203.397 243.915 203.296 244.318 203.095C244.821 202.793 245.476 202.239 246.281 201.434L250.509 196.753L251.415 202.944C251.415 204.051 251.516 204.857 251.717 205.36C252.019 205.763 252.271 206.065 252.472 206.266C252.673 206.266 252.975 206.115 253.378 205.813C253.781 205.41 254.284 204.655 254.888 203.548L257.757 198.716L259.418 204.303C260.123 206.216 260.727 207.172 261.23 207.172ZM134.692 17.365C133.585 19.68 131.873 21.442 129.558 22.65C127.243 23.757 124.625 24.059 121.706 23.556C119.592 22.851 117.78 21.895 116.27 20.687C114.961 19.58 113.854 18.12 112.948 16.308C112.143 14.496 112.143 12.13 112.948 9.211C113.653 6.292 114.76 4.228 116.27 3.02C117.881 1.711 119.491 0.856003 121.102 0.453003C122.914 0.0500029 124.927 0.0500029 127.142 0.453003C127.947 0.654003 128.753 0.956001 129.558 1.359C130.263 1.661 131.018 2.114 131.823 2.718C132.628 3.322 133.383 4.077 134.088 4.983L129.558 7.701C129.155 7.298 128.652 6.845 128.048 6.342C127.545 5.839 126.84 5.486 125.934 5.285C124.223 4.983 122.864 5.08401 121.857 5.58701C120.85 5.99001 120.045 6.594 119.441 7.399C118.736 8.305 118.183 9.31201 117.78 10.419C117.579 11.526 117.629 12.634 117.931 13.741C118.132 14.647 118.585 15.553 119.29 16.459C119.995 17.264 121.203 17.868 122.914 18.271C124.424 18.774 125.733 18.724 126.84 18.12C128.048 17.516 129.055 16.56 129.86 15.251L134.692 17.365ZM159.456 0.453003C161.57 0.554003 163.533 1.057 165.345 1.963C166.855 2.768 168.214 3.97601 169.422 5.58701C170.731 7.09701 171.385 9.312 171.385 12.231C171.385 15.251 170.731 17.566 169.422 19.177C168.214 20.687 166.855 21.845 165.345 22.65C163.533 23.556 161.57 24.059 159.456 24.16C157.241 24.059 155.278 23.556 153.567 22.65C152.057 21.845 150.698 20.687 149.49 19.177C148.282 17.566 147.678 15.251 147.678 12.231C147.678 9.312 148.282 7.09701 149.49 5.58701C150.698 3.97601 152.057 2.768 153.567 1.963C155.278 1.057 157.241 0.554003 159.456 0.453003ZM159.456 19.026C161.167 19.026 162.426 18.674 163.231 17.969C164.137 17.264 164.842 16.509 165.345 15.704C165.848 14.697 166.15 13.54 166.251 12.231C166.15 11.023 165.848 9.916 165.345 8.909C164.842 8.104 164.137 7.349 163.231 6.644C162.426 5.939 161.167 5.58701 159.456 5.58701C157.745 5.58701 156.436 5.939 155.53 6.644C154.624 7.349 153.97 8.104 153.567 8.909C153.064 9.916 152.812 11.023 152.812 12.231C152.812 13.54 153.064 14.697 153.567 15.704C153.97 16.509 154.624 17.264 155.53 17.969C156.436 18.674 157.745 19.026 159.456 19.026ZM154.171 56.474C153.064 58.789 151.352 60.551 149.037 61.759C146.722 62.866 144.104 63.168 141.185 62.665C139.071 61.96 137.259 61.004 135.749 59.796C134.44 58.689 133.333 57.229 132.427 55.417C131.622 53.605 131.622 51.239 132.427 48.32C133.132 45.401 134.239 43.337 135.749 42.129C137.36 40.82 138.97 39.965 140.581 39.562C142.393 39.159 144.406 39.159 146.621 39.562C147.426 39.763 148.232 40.065 149.037 40.468C149.742 40.77 150.497 41.223 151.302 41.827C152.107 42.431 152.862 43.186 153.567 44.092L149.037 46.81C148.634 46.407 148.131 45.954 147.527 45.451C147.024 44.948 146.319 44.595 145.413 44.394C143.702 44.092 142.343 44.193 141.336 44.696C140.329 45.099 139.524 45.703 138.92 46.508C138.215 47.414 137.662 48.421 137.259 49.528C137.058 50.635 137.108 51.743 137.41 52.85C137.611 53.756 138.064 54.662 138.769 55.568C139.474 56.373 140.682 56.977 142.393 57.38C143.903 57.883 145.212 57.833 146.319 57.229C147.527 56.625 148.534 55.669 149.339 54.36L154.171 56.474Z" fill="#3F0303"/>
</svg>
